<svg xmlns="http://www.w3.org/2000/svg" viewBox="0 0 24 24" width="100%" height="100%">
  <rect width="24" height="24" rx="5" fill="#0a0a23"/>
  <path fill="#228b22" d="M18 11.5c-.6-1.5-1.8-2.5-3.2-3.1.5-1.8.1-3.4-.8-4.4.9 2-1 4.5-2 5.5-1.2-1-1.8-2.3-1.8-3.5 0 2-2 3.8-3 5.3C6 12.5 5 14.5 5 16.5c0 3 2.5 5.5 5.5 5.5s5.5-2.5 5.5-5.5c0-1.8-.7-3.4-2-4.5 1.5.3 2.8-.5 4-1z" />
  <path fill="#ffffff" d="M8.5 14.5c.3-.5.7-.9 1.2-1.2-.5 1-.4 1.8.2 2.2.4.3.9.2 1.3 0-.5.6-1.2.8-1.8.5-.5-.3-.7-.9-.9-1.5z"/>
</svg>
